# xmcd
#
# Track frame offsets:
#	150
#	14388
#	35017
#	51759
#	71448
#	80827
#	94675
#	108004
#	120166
#	138764
#	154339
#	169576
#	183155
#	213258
#
# Disc length: 2994 seconds
#
# Revision: 0
# Processed by: cddbd v1.5PL3 Copyright (c) Steve Scherf et al.
# Submitted via: dBpowerAMP V4.0
#
DISCID=ac0bb00e
DTITLE=Pete Serge - Ripple Effect
DYEAR=1900
DGENRE=Country
TTITLE0=Someone Who Really Loves You
TTITLE1=Love's Loser
TTITLE2=Ripple Effect
TTITLE3=I'm Still Angry
TTITLE4=My Dixie Wrecked
TTITLE5=Businessman
TTITLE6=The Best Little Friend
TTITLE7=Scared Little Animals
TTITLE8=Why is She Callin' Me Now?
TTITLE9=The World Goes On Without Me
TTITLE10=Whoever You Are
TTITLE11=Porn Star
TTITLE12=You Fooled Me Once
TTITLE13=My Second X Wife's First X Husband
EXTD=A guy from a coffee shop pretty funny.Look for him at the daily grind\nnext to Willington Pizza 2 he plays there every other week.
EXTT0=
EXTT1=
EXTT2=
EXTT3=
EXTT4=
EXTT5=
EXTT6=
EXTT7=
EXTT8=
EXTT9=
EXTT10=
EXTT11=
EXTT12=
EXTT13=
PLAYORDER=
